<svg xmlns="http://www.w3.org/2000/svg" version="1.1" xmlns:xlink="http://www.w3.org/1999/xlink" xmlns:svgjs="http://svgjs.com/svgjs" width="1920" height="1080" preserveAspectRatio="none" viewBox="0 0 1920 1080">
    <g mask="url(&quot;#SvgjsMask1563&quot;)" fill="none">
        <rect width="1920" height="1080" x="0" y="0" fill="url(#SvgjsLinearGradient1564)"></rect>
        <use xlink:href="#SvgjsG1580" transform="translate(0, 0)" fill="rgba(85, 103, 41, 1)"></use>
        <use xlink:href="#SvgjsG1580" transform="translate(0, 480)" fill="rgba(85, 103, 41, 1)"></use>
        <use xlink:href="#SvgjsG1580" transform="translate(0, 960)" fill="rgba(85, 103, 41, 1)"></use>
        <use xlink:href="#SvgjsG1580" transform="translate(480, 0)" fill="rgba(85, 103, 41, 1)"></use>
        <use xlink:href="#SvgjsG1580" transform="translate(480, 480)" fill="rgba(85, 103, 41, 1)"></use>
        <use xlink:href="#SvgjsG1580" transform="translate(480, 960)" fill="rgba(85, 103, 41, 1)"></use>
        <use xlink:href="#SvgjsG1580" transform="translate(960, 0)" fill="rgba(85, 103, 41, 1)"></use>
        <use xlink:href="#SvgjsG1580" transform="translate(960, 480)" fill="rgba(85, 103, 41, 1)"></use>
        <use xlink:href="#SvgjsG1580" transform="translate(960, 960)" fill="rgba(85, 103, 41, 1)"></use>
        <use xlink:href="#SvgjsG1580" transform="translate(1440, 0)" fill="rgba(85, 103, 41, 1)"></use>
        <use xlink:href="#SvgjsG1580" transform="translate(1440, 480)" fill="rgba(85, 103, 41, 1)"></use>
        <use xlink:href="#SvgjsG1580" transform="translate(1440, 960)" fill="rgba(85, 103, 41, 1)"></use>
    </g>
    <defs>
        <mask id="SvgjsMask1563">
            <rect width="1920" height="1080" fill="#ffffff"></rect>
        </mask>
        <linearGradient x1="50%" y1="0%" x2="50%" y2="100%" gradientUnits="userSpaceOnUse" id="SvgjsLinearGradient1564">
            <stop stop-color="#0e2a47" offset="0"></stop>
            <stop stop-color="rgba(158, 213, 44, 1)" offset="1"></stop>
        </linearGradient>
        <g id="SvgjsG1574">
            <path d="M8.564 1.79a0.892 0.892 0 0 0 0.892-0.892A0.892 0.892 0 0 0 8.564 0.006a0.892 0.892 0 0 0 0 1.784z m-4.837 0.006c-0.5 0-0.904-0.402-0.904-0.899C2.824 0.402 3.227 0 3.728 0c0.5 0 0.905 0.402 0.905 0.898s-0.405 0.898-0.905 0.897z"></path>
            <path d="M12.368 4.611a0.625 0.625 0 1 0 1.251 0 0.625 0.625 0 1 0-1.251 0"></path>
            <path d="M13.9 5.546H12.212c-0.008 0-0.564-0.051-0.564-0.051l-0.707-2.464C10.656 2.04 9.824 2.07 9.824 2.07H7.538s-0.83-0.03-1.116 0.961l-0.348 1.213-0.348-1.213c-0.286-0.991-1.115-0.961-1.116-0.961h-1.769s-0.831-0.03-1.115 0.961L1.013 5.514c-0.068 0.232 0.059 0.409 0.262 0.467 0.203 0.058 0.41-0.044 0.463-0.229l0.693-2.42 0.339 0-1.013 4.189h0.895v2.975a0.443 0.443 0 0 0 0.443 0.445 0.446 0.446 0 0 0 0.446-0.445V7.521h0.376v2.975a0.444 0.444 0 0 0 0.443 0.445 0.445 0.445 0 0 0 0.445-0.445V7.52h0.88l-1.002-4.189 0.337 0.001 0.685 2.394c0.011 0.041 0.03 0.078 0.053 0.111 0.067 0.101 0.185 0.158 0.316 0.153 0.13 0.004 0.247-0.052 0.314-0.152a0.325 0.325 0 0 0 0.058-0.123l0.682-2.382 0.312-0.001v7.079a0.525 0.525 0 0 0 0.526 0.523 0.523 0.523 0 0 0 0.523-0.523v-4.028h0.387v4.028a0.523 0.523 0 0 0 0.522 0.523c0.29 0 0.526-0.234 0.526-0.523v-7.079l0.339 0.001 0.664 2.419c0.035 0.12 0.136 0.198 0.254 0.228 0.005 0.001 0.008 0.005 0.013 0.005 0.106 0.024 0.593 0.162 0.952 0.265v4.39a0.368 0.368 0 0 0 0.736 0v-2.194h0.287v2.193c0 0.203 0.164 0.368 0.367 0.368s0.369-0.165 0.369-0.368v-4.1h0.283v1.39c0 0.151 0.123 0.275 0.273 0.275 0.151 0 0.27-0.124 0.271-0.275V6.347c0-0.442-0.389-0.802-0.832-0.801z m-1.914 8.699a46.749 46.749 0 0 1-0.521-0.411c-0.146-0.116-0.293-0.233-0.44-0.348-0.882-0.688-1.798-1.316-2.817-1.407a2.815 2.815 0 0 0-0.255-0.012c-0.086 0-0.171 0.011-0.255 0.018-1.022 0.093-1.942 0.717-2.826 1.408l0.093 0.073c0.108 0.085 0.213 0.168 0.32 0.252 0.878-0.681 1.734-1.242 2.668-1.242 0.93 0 1.784 0.558 2.66 1.236a35.098 35.098 0 0 1 0.533 0.421c0.141 0.113 0.283 0.226 0.426 0.338C12.531 15.32 13.53 16 14.658 16c0.437 0 0.854-0.104 1.256-0.273v-0.557c-0.409 0.197-0.825 0.32-1.257 0.32-0.934 0-1.792-0.563-2.672-1.245z"></path>
            <path d="M11.574 13.496c0.029 0.023 0.059 0.046 0.088 0.07 0.109 0.087 0.216 0.17 0.325 0.256 0.318-0.246 0.635-0.476 0.952-0.67v1.37c0.17 0.111 0.34 0.214 0.51 0.301V12.878c0.315-0.147 0.634-0.248 0.96-0.283v2.537c0.078 0.01 0.157 0.018 0.237 0.018 0.091 0 0.183-0.009 0.273-0.021v-2.537c0.34 0.037 0.67 0.144 0.996 0.3v-0.555c-0.401-0.167-0.816-0.27-1.251-0.27-1.128 0-2.13 0.68-3.09 1.429z m-7.248 1.08c-0.034-0.027-0.068-0.053-0.102-0.08-0.104-0.083-0.207-0.162-0.31-0.245-0.877 0.678-1.733 1.238-2.665 1.238C0.82 15.49 0.407 15.36 0 15.152v0.562C0.401 15.891 0.815 16 1.249 16c1.124 0 2.122-0.677 3.077-1.423z"></path>
            <path d="M0.989 15.133c0.084 0.011 0.17 0.019 0.254 0.02 0.086 0 0.171-0.008 0.256-0.02V12.592c0.329 0.035 0.65 0.136 0.967 0.285-0.002 0.012-0.007 0.023-0.007 0.036v1.903a5.818 5.818 0 0 0 0.51-0.303V13.152c0.487 0.3 0.971 0.684 1.467 1.08C5.525 15.101 6.652 16 7.948 16c1.123 0 2.121-0.675 3.078-1.42l-0.106-0.084c-0.103-0.082-0.205-0.161-0.306-0.242-0.313 0.242-0.622 0.466-0.934 0.658v-1.348a5.816 5.816 0 0 0-0.511-0.303v1.894c0 0.011 0.003 0.019 0.005 0.03-0.317 0.149-0.637 0.251-0.966 0.288V12.938a1.97 1.97 0 0 0-0.267-0.021c-0.082 0-0.163 0.008-0.243 0.018V15.475c-0.33-0.035-0.652-0.135-0.969-0.283 0.002-0.013 0.007-0.024 0.007-0.038v-1.905a5.549 5.549 0 0 0-0.51 0.301v1.368c-0.49-0.3-0.976-0.686-1.474-1.084-1.089-0.869-2.214-1.768-3.51-1.767-0.432 0-0.844 0.096-1.244 0.251v0.55c0.324-0.144 0.652-0.244 0.989-0.277v2.542z"></path>
        </g>
        <g id="SvgjsG1571">
            <path d="M8.655 0C5.901 0 3.36 2.069 2.833 4.347 2.715 4.854 2.582 6.177 2.582 6.177L1.318 9.37A0.469 0.469 0 0 0 1.28 9.561a0.488 0.488 0 0 0 0.489 0.488h0.814v1.697c0 1.324 1.07 2.396 2.392 2.396h0.952V16h3.535v-0.829h1.44V16h1.503V10.847c1.413-1.111 2.322-2.838 2.322-4.774C14.726 2.718 12.01 0 8.655 0zM4.077 7.387a0.682 0.682 0 0 1-0.682-0.682c0-0.375 0.306-0.68 0.682-0.68a0.681 0.681 0 0 1 0.679 0.68c0 0.377-0.306 0.682-0.68 0.682z m5.385 4.46h1.44v0.779h-1.44v-0.779z m0-1.108h1.44v0.778h-1.44V10.739z m0 2.215h1.44v0.78h-1.44v-0.78z m0 1.109h1.44v0.78h-1.44V14.062z m0-4.431h1.448c-0.003 0.057-0.009 0.113-0.009 0.172v0.607h-1.44V9.632z m3.986-4.488a1.557 1.557 0 0 1-0.427 1.071c-0.045 0.592-0.42 1.091-0.942 1.316v0.005c-0.637 0.372-1.019 1.005-1.135 1.766H10.354v-1.765c0.004-0.55 0.177-0.902 0.539-1.119a1.907 1.907 0 0 0 0.356-0.26 1.229 1.229 0 0 1 0.659 0.556c0.032 0.053 0.088 0.083 0.144 0.082 0.027 0 0.055-0.007 0.08-0.021a0.163 0.163 0 0 0 0.064-0.224h-0.001a1.563 1.563 0 0 0-0.721-0.657c0.15-0.231 0.234-0.506 0.23-0.837 0-0.002 0.002-0.003 0.003-0.006 0-0.149-0.022-0.294-0.062-0.431a1.572 1.572 0 0 0 0.871-0.486 0.164 0.164 0 0 0-0.011-0.234 0.164 0.164 0 0 0-0.232 0.011 1.248 1.248 0 0 1-0.755 0.396c-0.24-0.444-0.686-0.76-1.209-0.818a1.235 1.235 0 0 1 0.353-0.724 0.166 0.166 0 0 0 0-0.233 0.166 0.166 0 0 0-0.234 0 1.572 1.572 0 0 0-0.45 0.937 1.244 1.244 0 0 1-1.088-1.234c0-0.09-0.075-0.165-0.163-0.165-0.093 0-0.166 0.075-0.167 0.165 0 0.107 0.01 0.21 0.031 0.31a1.24 1.24 0 0 1-1.235 0.229s-0.002 0-0.003-0.001a1.225 1.225 0 0 1-0.453-0.289c-0.063-0.064-0.168-0.064-0.233 0-0.065 0.064-0.065 0.168 0 0.233a1.59 1.59 0 0 0 0.452 0.316c-0.033 0.411-0.271 0.764-0.605 0.963a1.578 1.578 0 0 0-0.84-0.639 0.166 0.166 0 0 0-0.209 0.107c-0.024 0.087 0.02 0.179 0.108 0.207a1.247 1.247 0 0 1 0.63 0.455 1.221 1.221 0 0 1-0.32 0.042h-0.02a1.568 1.568 0 0 0-1.096 0.444 0.161 0.161 0 0 0-0.003 0.233 0.162 0.162 0 0 0 0.231 0.003 1.236 1.236 0 0 1 0.868-0.35h0.019c0.794 0 1.453-0.591 1.557-1.358 0.113 0.024 0.226 0.038 0.34 0.038A1.574 1.574 0 0 0 8.699 2.88a1.558 1.558 0 0 0 0.45 0.583 1.556 1.556 0 0 0-0.341 0.82 1.622 1.622 0 0 0-0.256-0.021 1.557 1.557 0 0 0-0.736 0.185c-0.08 0.043-0.111 0.142-0.068 0.224 0.03 0.055 0.088 0.087 0.147 0.087a0.144 0.144 0 0 0 0.075-0.02 1.25 1.25 0 0 1 0.583-0.146c0.087 0 0.173 0.01 0.256 0.027a1.576 1.576 0 0 0 0.428 0.92c0.033 0.034 0.076 0.051 0.118 0.051 0.04 0 0.082-0.015 0.115-0.046 0.067-0.063 0.069-0.167 0.005-0.232h-0.001a1.253 1.253 0 0 1-0.345-0.829c0-0.004 0.001-0.008 0-0.013v-0.018a1.237 1.237 0 0 1 0.299-0.81 1.57 1.57 0 0 0 0.701 0.166s0.001 0 0.003 0h0.003a1.244 1.244 0 0 1 1.241 1.24 1.566 1.566 0 0 0-0.401-0.052c-0.196 0-0.395 0.036-0.587 0.114a0.164 0.164 0 0 0-0.091 0.215c0.035 0.084 0.129 0.125 0.214 0.09a1.247 1.247 0 0 1 0.464-0.091c0.124 0 0.248 0.019 0.363 0.055a0.953 0.953 0 0 1-0.242 0.464 0.14 0.14 0 0 0-0.025 0.029c-0.094 0.092-0.207 0.177-0.346 0.262-0.477 0.278-0.706 0.784-0.701 1.403V9.301h-0.563V7.624c0-0.616-0.386-1.201-0.873-1.409-0.232-0.09-0.474-0.241-0.65-0.438a1.558 1.558 0 0 1-0.878 0.271 1.555 1.555 0 0 1-0.877-0.269 1.581 1.581 0 0 1-0.87 0.26c-0.883 0-1.596-0.715-1.597-1.597 0-0.659 0.398-1.224 0.969-1.467 0.154-0.703 0.777-1.229 1.527-1.23 0.04 0 0.076 0.003 0.113 0.006a1.567 1.567 0 0 1 1.295-0.684c0.266 0 0.516 0.066 0.736 0.185a1.558 1.558 0 0 1 1.925 0.158 1.553 1.553 0 0 1 0.365-0.044c0.633 0 1.18 0.381 1.424 0.926 0.642 0.195 1.11 0.79 1.11 1.496a1.576 1.576 0 0 1-0.054 0.408 1.561 1.561 0 0 1 0.321 0.948z"></path>
        </g>
        <g id="SvgjsG1573">
            <path d="M12.59 14.197a0.759 0.759 0 0 1-0.759 0.759 0.758 0.758 0 0 1-0.759-0.759v-0.663h1.518v0.663zM10.588 16H8.429l0.003-1.065h-0.723L7.707 16H5.545V13.534h5.043zM5.043 14.197a0.758 0.758 0 0 1-0.759 0.759 0.759 0.759 0 0 1-0.759-0.759v-0.663h1.518v0.663zM8.058 0c1.083 0 1.961 0.878 1.961 1.962 0 1.083-0.878 1.961-1.961 1.961-1.084 0-1.962-0.878-1.962-1.961C6.097 0.878 6.974 0 8.058 0z m5.578 12.77H2.48V6.25h11.156v6.52zM11.894 6.789h-7.629v5.451h7.629V6.789z"></path>
            <path d="M8.429 10.011v0.479h1.397c0.058 0 0.144 0.052 0.144 0.142 0 0.815-0.102 1.199-0.532 1.199-0.445 0-0.537-0.964-1.01-1.027v0.922h-0.746V10.802c-0.496 0.038-0.576 1.029-1.038 1.029-0.429 0-0.508-0.384-0.509-1.199 0-0.09 0.086-0.142 0.144-0.142h1.403V10.011h-1.453a0.151 0.151 0 0 1 0-0.301h1.453v-0.478H6.047a0.151 0.151 0 0 1-0.151-0.152c0-0.083 0.068-0.151 0.151-0.151h1.635V8.451h-1.534a0.151 0.151 0 0 1-0.152-0.151c0-0.083 0.068-0.152 0.151-0.152h1.535V7.67H6.48a0.151 0.151 0 0 1-0.151-0.15c0-0.084 0.067-0.152 0.151-0.153h1.202v-0.264h0.747v0.264h1.202a0.152 0.152 0 0 1 0 0.303H8.429v0.478h1.539c0.084 0 0.152 0.069 0.152 0.152a0.151 0.151 0 0 1-0.152 0.151H8.429v0.478h1.64a0.152 0.152 0 0 1 0.151 0.151 0.151 0.151 0 0 1-0.151 0.152H8.429v0.478h1.453a0.151 0.151 0 0 1 0 0.301h-1.453z m1.915-5.609h-4.506c-0.815 0-1.57 0.435-1.994 1.084H12.272c-0.397-0.649-1.114-1.084-1.928-1.084z"></path>
        </g>
        <g id="SvgjsG1565">
            <path d="M10.596 3.917a0.64 0.64 0 0 0-0.639 0.641c0 0.354 0.287 0.64 0.639 0.64a0.639 0.639 0 0 0 0.639-0.64 0.639 0.639 0 0 0-0.639-0.641z m-0.151 5.25a0.642 0.642 0 0 0 0.643 0.641c0.352 0 0.638-0.286 0.637-0.64a0.639 0.639 0 0 0-0.637-0.641 0.641 0.641 0 0 0-0.642 0.641z m-4.678-5.945a0.641 0.641 0 0 0 0 1.282 0.64 0.64 0 0 0 0.642-0.64 0.641 0.641 0 0 0-0.642-0.642z"></path>
            <path d="M8.659 0C5.904 0 3.363 2.068 2.835 4.347c-0.119 0.507-0.25 1.83-0.25 1.829L1.316 9.37A0.488 0.488 0 0 0 1.28 9.561a0.491 0.491 0 0 0 0.491 0.489h0.814v1.697c0 1.323 1.072 2.395 2.394 2.395h0.951V16H12.408V10.847c1.413-1.111 2.32-2.838 2.32-4.775C14.728 2.718 12.01 0 8.659 0z m-4.583 7.387c-0.372 0-0.675-0.304-0.675-0.679a0.677 0.677 0 0 1 0.675-0.677c0.375 0 0.68 0.303 0.68 0.677a0.68 0.68 0 0 1-0.68 0.679z m8.959-0.918l-0.631 0.632-0.77-0.543c-0.148 0.077-0.304 0.139-0.467 0.18l-0.142 0.838h0.294l0.079 0.448c0.031 0.008 0.062 0.013 0.092 0.024 0.079 0.029 0.152 0.067 0.22 0.11l0.355-0.25 0.292 0.291-0.262 0.371c0.056 0.1 0.101 0.206 0.125 0.318l0.429 0.074v0.412l-0.446 0.076c-0.009 0.032-0.013 0.063-0.024 0.094a1.147 1.147 0 0 1-0.112 0.223l0.251 0.353-0.292 0.291-0.369-0.262a1.149 1.149 0 0 1-0.318 0.126l-0.075 0.429H10.851l-0.074-0.448c-0.032-0.009-0.064-0.013-0.096-0.025a1.174 1.174 0 0 1-0.221-0.11l-0.356 0.252L9.815 10.08l0.262-0.37a1.151 1.151 0 0 1-0.125-0.319l-0.431-0.074v-0.411l0.45-0.077c0.008-0.032 0.013-0.063 0.025-0.094 0.029-0.079 0.066-0.152 0.109-0.22l-0.251-0.356 0.291-0.291 0.371 0.262a1.174 1.174 0 0 1 0.317-0.125l0.064-0.372h-0.776L9.96 6.704c-0.035-0.011-0.07-0.02-0.104-0.034a2.221 2.221 0 0 1-0.352-0.168l-0.744 0.524-0.63-0.632 0.542-0.767a2.184 2.184 0 0 1-0.181-0.469l-0.894-0.154V4.27l-0.449 0.078c-0.007 0.022-0.009 0.044-0.017 0.065a1.402 1.402 0 0 1-0.109 0.223l0.345 0.489-0.416 0.414-0.506-0.357a1.438 1.438 0 0 1-0.294 0.116l-0.102 0.586-0.584 0-0.106-0.611c-0.02-0.007-0.042-0.009-0.062-0.017a1.43 1.43 0 0 1-0.226-0.11l-0.49 0.345-0.414-0.415 0.359-0.508a1.485 1.485 0 0 1-0.112-0.291L3.824 4.176V3.589l0.608-0.105c0.007-0.022 0.012-0.043 0.02-0.063 0.029-0.08 0.068-0.154 0.109-0.225l-0.345-0.488 0.413-0.415 0.508 0.358a1.439 1.439 0 0 1 0.295-0.117l0.102-0.586h0.584L6.224 2.56c0.021 0.007 0.043 0.008 0.063 0.016 0.08 0.03 0.154 0.069 0.225 0.11l0.489-0.344 0.415 0.414-0.359 0.507a1.397 1.397 0 0 1 0.115 0.293l0.586 0.101v0.427l0.768-0.132c0.011-0.035 0.02-0.07 0.033-0.105 0.046-0.126 0.104-0.243 0.17-0.355l-0.528-0.74 0.634-0.633 0.77 0.544a2.192 2.192 0 0 1 0.468-0.181l0.151-0.894h0.894l0.162 0.928c0.035 0.01 0.069 0.02 0.104 0.033 0.124 0.046 0.241 0.104 0.352 0.168l0.743-0.523 0.629 0.631-0.542 0.77c0.077 0.148 0.138 0.304 0.18 0.466l0.895 0.154v0.894l-0.929 0.16c-0.011 0.035-0.02 0.07-0.032 0.104-0.046 0.125-0.104 0.242-0.17 0.353l0.525 0.743z"></path>
        </g>
        <g id="SvgjsG1568">
            <path d="M8.312 4.802l0 0.521c0.492-0.069 0.443-0.509 0-0.52z m-0.51-0.627V3.715c-0.365 0.064-0.358 0.454 0 0.46z"></path>
            <path d="M8.055 2.506c-1.128 0-2.044 0.915-2.044 2.043 0 1.129 0.915 2.044 2.045 2.044 1.129 0 2.043-0.915 2.043-2.044 0-1.128-0.915-2.043-2.043-2.043z m0.251 3.336v0.364h-0.507v-0.37c-0.29-0.043-0.822-0.323-0.855-0.924h0.534c0.034 0.154 0.078 0.34 0.321 0.409l-0.001-0.605c-0.334-0.048-0.814-0.194-0.814-0.73 0-0.602 0.666-0.789 0.813-0.789v-0.364h0.502v0.364c0.338 0.02 0.83 0.302 0.83 0.84h-0.528c-0.014-0.16-0.137-0.317-0.296-0.327v0.554c0.403 0.041 0.877 0.195 0.877 0.738 0 0.473-0.475 0.818-0.877 0.84z m1.733 5.54c-1.129 0-2.044 0.915-2.043 2.044s0.915 2.043 2.043 2.043 2.043-0.915 2.043-2.043c0-1.129-0.915-2.044-2.043-2.044zM10.955 13.739v0.499h-0.636v0.701h-0.542V14.238h-0.68v-0.49h0.688l-0.894-1.576h0.593l0.551 0.972 0.597-0.972h0.547L10.293 13.739h0.662z m-7.36-4.673c-1.129 0-2.044 0.915-2.043 2.044S2.467 13.154 3.595 13.154s2.044-0.915 2.044-2.044-0.915-2.044-2.044-2.044z m0.065 1.654v0.486h-0.367v1.165H2.773v-1.162h-0.31v-0.484h0.31v-0.436c0-0.168 0.163-0.68 0.777-0.68 0.627 0 0.762 0.494 0.762 0.908h-0.511c0-0.265-0.037-0.404-0.246-0.404-0.226 0-0.262 0.155-0.262 0.4v0.206h0.366z m1.173 0.482c-0.421 0.052-0.516 0.276-0.517 0.554v0.616h-0.516V10.72h0.516v0.258c0.112-0.129 0.241-0.267 0.517-0.267v0.491z"></path>
            <path d="M0 0.56v7.93h9.395c0.178 0.948 1.009 1.666 2.009 1.666s1.83-0.718 2.008-1.666H16V0.56H0z m11.195 7.221h0.464v0.441h-0.378c0.047 0.403-0.185 0.572-0.198 0.707h1.264v0.441H10.456v-0.441c0.215-0.144 0.327-0.508 0.258-0.703h-0.396v-0.448h0.318c-0.086-0.203-0.086-0.27-0.086-0.448s0.147-0.758 0.912-0.754c0.705 0.004 0.91 0.584 0.91 1l-0.537 0c-0.036-0.251-0.135-0.458-0.368-0.458-0.357 0-0.358 0.224-0.357 0.301s0.013 0.262 0.086 0.364z m3.297-0.798h-1.386c-0.366-0.551-0.992-0.914-1.703-0.914S10.067 6.432 9.701 6.982H1.508V2.068h12.984V6.982z"></path>
        </g>
        <g id="SvgjsG1572">
            <path d="M11.986 8.245a46.749 46.749 0 0 1-0.521-0.411c-0.146-0.116-0.293-0.233-0.44-0.348-0.88-0.688-1.797-1.316-2.816-1.407A2.815 2.815 0 0 0 7.954 6.067c-0.086 0-0.171 0.011-0.255 0.018-1.022 0.093-1.942 0.717-2.826 1.408l0.093 0.073c0.108 0.085 0.213 0.168 0.32 0.252C6.165 7.137 7.021 6.576 7.954 6.576c0.93 0 1.784 0.558 2.66 1.236a35.098 35.098 0 0 1 0.535 0.421c0.142 0.113 0.283 0.226 0.426 0.338C12.532 9.32 13.531 10 14.658 10c0.437 0 0.854-0.104 1.257-0.273v-0.557c-0.409 0.197-0.825 0.32-1.257 0.32-0.934 0-1.792-0.563-2.672-1.245z"></path>
            <path d="M11.574 7.496c0.029 0.023 0.059 0.046 0.088 0.07 0.109 0.087 0.216 0.17 0.325 0.256 0.318-0.246 0.635-0.476 0.952-0.67v1.37c0.17 0.111 0.34 0.214 0.51 0.301V6.878c0.315-0.147 0.634-0.248 0.96-0.283v2.537c0.078 0.01 0.157 0.018 0.237 0.018 0.091 0 0.183-0.009 0.273-0.021V6.592c0.34 0.037 0.67 0.144 0.996 0.3V6.336C15.514 6.17 15.099 6.067 14.664 6.067c-1.128 0-2.13 0.68-3.09 1.429z m-7.248 1.08c-0.034-0.027-0.068-0.053-0.102-0.08-0.104-0.083-0.207-0.162-0.31-0.245-0.877 0.678-1.733 1.238-2.665 1.238C0.82 9.49 0.407 9.36 0 9.152v0.562C0.401 9.891 0.815 10 1.249 10c1.124 0 2.122-0.677 3.077-1.423z"></path>
            <path d="M0.989 9.133c0.084 0.011 0.17 0.019 0.254 0.02 0.086 0 0.171-0.008 0.256-0.02V6.592c0.329 0.035 0.65 0.136 0.967 0.285-0.002 0.012-0.007 0.023-0.007 0.036v1.903a5.818 5.818 0 0 0 0.51-0.303V7.152c0.487 0.3 0.971 0.684 1.467 1.08C5.525 9.101 6.652 10 7.948 10c1.123 0 2.121-0.675 3.078-1.42l-0.106-0.084c-0.103-0.082-0.205-0.161-0.306-0.242-0.313 0.242-0.622 0.466-0.934 0.658V7.564A5.816 5.816 0 0 0 9.17 7.261v1.893c0 0.01 0.004 0.019 0.005 0.029-0.316 0.149-0.637 0.252-0.965 0.288V6.937a1.97 1.97 0 0 0-0.267-0.02c-0.082 0-0.163 0.008-0.243 0.017v2.541c-0.33-0.035-0.652-0.136-0.969-0.283 0.002-0.013 0.006-0.024 0.006-0.039V7.248a5.629 5.629 0 0 0-0.51 0.302v1.368c-0.49-0.299-0.976-0.686-1.474-1.083C3.666 6.966 2.539 6.067 1.243 6.067c-0.432 0-0.844 0.096-1.243 0.251v0.55c0.324-0.144 0.652-0.244 0.989-0.278V9.133z"></path>
        </g>
        <g id="SvgjsG1570">
            <path d="M5.952 10.09l3.972 2.294-0.394 0.681L5.559 10.771z"></path>
            <path d="M13.584 14.37c1.147-1.084 1.874-2.605 1.874-4.304 0-2.093-1.099-3.981-2.809-5.041l1.915-3.315-0.3-0.174L14.736 0.715 13.498 0 13.024 0.82l-0.317-0.183-4.708 8.156 0.411 0.238-0.584 1.01 1.035 0.597 0.584-1.01 0.41 0.237 1.98-3.429c1.214 0.774 1.993 2.13 1.993 3.63 0 2.373-1.932 4.304-4.305 4.304H6.053V16h9.766V14.37H13.584zM4.916 1.838V0.545h0.159l-0.003-0.311h-1.451l0.003 0.311h0.171v1.293H2.712V0.545h0.158l-0.001-0.311H1.416l0.003 0.311h0.171v1.293H0v6.481h6.491V1.838h-1.576z m1.026 5.932H0.549V2.387h1.041v4.141c0 0.314 0.256 0.568 0.565 0.568 0.31-0.001 0.557-0.255 0.557-0.568V2.387h1.082v4.141c0 0.314 0.256 0.568 0.566 0.568 0.31-0.001 0.556-0.255 0.555-0.568V2.387h1.027v5.383z"></path>
        </g>
        <g id="SvgjsG1579">
            <path d="M11.221 11.657c-2.056 2.056-5.389 2.055-7.444 0-2.056-2.056-2.056-5.389 0-7.444 0.976-0.977 2.617-2.176 5.214-2.176 4.749 0 6.224-1.252 6.224-1.252 0 5.707-1.938 8.816-3.994 10.872z"></path>
            <path d="M3.223 11.626L2.552 10.224l6.437-4.363z"></path>
            <path d="M8.989 5.861l1.15 1.15-8.203 8.203-1.151-1.15z"></path>
        </g>
        <g id="SvgjsG1567">
            <path d="M3.312 10.09l3.972 2.294-0.394 0.681L2.919 10.771 3.312 10.09z"></path>
            <path d="M10.944 14.37c1.147-1.084 1.874-2.605 1.874-4.304 0-2.093-1.099-3.981-2.809-5.041l1.915-3.315-0.3-0.174L12.096 0.715 10.858 0 10.384 0.82l-0.317-0.183-4.708 8.156 0.411 0.238-0.584 1.01 1.035 0.597 0.584-1.01 0.41 0.237 1.98-3.429c1.214 0.774 1.993 2.13 1.993 3.63 0 2.373-1.932 4.304-4.305 4.304H3.413V16h9.766V14.37H10.944z"></path>
        </g>
        <g id="SvgjsG1575">
            <path d="M1.135 8.57h1.423c0.108 0 0.208 0.054 0.268 0.142 0 0 0.271 0.41 0.542 0.816 0.15-1.331 0.673-5.983 0.673-5.983a0.322 0.322 0 0 1 0.3-0.284c0.155-0.01 0.294 0.094 0.331 0.246 0 0 0.682 2.858 1.004 4.208l0.427-1.21a0.322 0.322 0 0 1 0.301-0.214c0.134-0.001 0.256 0.083 0.302 0.21 0 0 0.633 1.72 0.76 2.067h1.236c0.108 0 0.208 0.054 0.267 0.142 0 0 0.271 0.41 0.542 0.816 0.15-1.331 0.673-5.983 0.673-5.983a0.321 0.321 0 0 1 0.631-0.039s0.681 2.857 1.004 4.209c0.212-0.6 0.428-1.208 0.427-1.208a0.32 0.32 0 0 1 0.602-0.004s0.634 1.72 0.76 2.067h1.262l0.067-0.128c0.613-1.055 1.061-3.009 1.061-4.432C16 2.193 14.678 0 12.102 0c-3.679 0-4.152 3.447-4.152 3.447S7.494 0.017 3.818 0.017C1.333 0.017 0 2.13 0 4.009c0 1.622 0.71 3.625 1.074 4.448l0.061 0.113z"></path>
            <path d="M13.385 9.211a0.321 0.321 0 0 1-0.301-0.21S12.8 8.229 12.554 7.56c-0.23 0.654-0.491 1.394-0.492 1.394a0.318 0.318 0 0 1-0.319 0.213 0.318 0.318 0 0 1-0.295-0.245L10.618 5.44l-0.567 5.036a0.321 0.321 0 0 1-0.243 0.275 0.32 0.32 0 0 1-0.342-0.133s-0.778-1.17-0.935-1.406H7.243c-0.134 0-0.254-0.085-0.3-0.21l-0.531-1.442-0.492 1.395A0.318 0.318 0 0 1 5.6 9.166a0.32 0.32 0 0 1-0.296-0.245s-0.458-1.921-0.83-3.48c-0.221 1.964-0.566 5.034-0.566 5.034a0.321 0.321 0 0 1-0.586 0.141s-0.778-1.17-0.935-1.405H1.483c2.301 4.086 6.468 6.779 6.468 6.779S12.194 13.298 14.531 9.211h-1.146z"></path>
        </g>
        <g id="SvgjsG1576">
            <path d="M3.474 10.969C3.474 7.665 8.077 0.361 8.077 0.361s4.602 7.305 4.602 10.608c0 2.247-1.506 4.771-4.602 4.771-3.095 0-4.603-2.524-4.603-4.771z" fill-rule="evenodd"></path>
        </g>
        <g id="SvgjsG1578">
            <path d="M8 2.545C2.984 2.545 0.007 8 0.007 8S2.984 13.455 8 13.455 15.993 8 15.993 8 13.016 2.545 8 2.545z m0 8.71c-1.795 0-3.255-1.46-3.255-3.255S6.205 4.745 8 4.745 11.254 6.205 11.254 8s-1.46 3.255-3.254 3.255z"></path>
            <path d="M6.079 8.078a1.921 1.921 0 1 0 3.842 0 1.921 1.921 0 1 0-3.842 0"></path>
        </g>
        <g id="SvgjsG1569">
            <path d="M5.211 0h5.557v5.234H16v5.539H10.81V15.998h-5.578V10.773H0v-5.539h5.211z"></path>
        </g>
        <g id="SvgjsG1566">
            <path d="M7.409 15.987C7.482 13.521 6.141 12.591 4.505 11.978c-0.544 2.109 0.956 3.865 2.904 4.009m0.37-11.013c1.043-2.235 0.179-3.624-1.085-4.834-1.327 1.724-0.644 3.93 1.085 4.834m0.589 6.218c-0.072-2.466 1.268-3.398 2.905-4.009 0.542 2.109-0.957 3.865-2.905 4.009m0 3.801c-0.072-2.465 1.268-3.395 2.905-4.008 0.542 2.108-0.957 3.865-2.905 4.008m0-7.598c-0.072-2.466 1.268-3.398 2.905-4.011 0.542 2.111-0.957 3.865-2.905 4.011M7.409 12.185C7.482 9.72 6.141 8.787 4.505 8.177c-0.544 2.109 0.956 3.865 2.904 4.009m0-3.8C7.482 5.919 6.141 4.987 4.505 4.373c-0.544 2.111 0.956 3.866 2.904 4.013" fill-rule="evenodd"></path>
        </g>
        <g id="SvgjsG1577">
            <path d="M8 14.66l5.904-5.908c1.836-1.836 1.8-4.512 0.132-6.174A4.268 4.268 0 0 0 8 2.58a4.264 4.264 0 0 0-6.03-0.02C0.3 4.24 0.26 6.92 2.1 8.744L8 14.66z"></path>
        </g>
        <g id="SvgjsG1580">
            <use xlink:href="#SvgjsG1565" transform="translate(0, 0) scale(2)" fill="rgba(85, 103, 41, 1)"></use>
            <use xlink:href="#SvgjsG1566" transform="translate(0, 48) scale(2)" fill="rgba(85, 103, 41, 1)"></use>
            <use xlink:href="#SvgjsG1567" transform="translate(0, 96) scale(2)" fill="rgba(85, 103, 41, 1)"></use>
            <use xlink:href="#SvgjsG1568" transform="translate(0, 144) scale(2)" fill="rgba(85, 103, 41, 1)"></use>
            <use xlink:href="#SvgjsG1567" transform="translate(0, 192) scale(2)" fill="rgba(85, 103, 41, 1)"></use>
            <use xlink:href="#SvgjsG1569" transform="translate(0, 240) scale(2)" fill="rgba(85, 103, 41, 1)"></use>
            <use xlink:href="#SvgjsG1570" transform="translate(0, 288) scale(2)" fill="rgba(85, 103, 41, 1)"></use>
            <use xlink:href="#SvgjsG1571" transform="translate(0, 336) scale(2)" fill="rgba(85, 103, 41, 1)"></use>
            <use xlink:href="#SvgjsG1565" transform="translate(0, 384) scale(2)" fill="rgba(85, 103, 41, 1)"></use>
            <use xlink:href="#SvgjsG1572" transform="translate(0, 432) scale(2)" fill="rgba(85, 103, 41, 1)"></use>
            <use xlink:href="#SvgjsG1573" transform="translate(48, 0) scale(2)" fill="rgba(85, 103, 41, 1)"></use>
            <use xlink:href="#SvgjsG1569" transform="translate(48, 48) scale(2)" fill="rgba(85, 103, 41, 1)"></use>
            <use xlink:href="#SvgjsG1574" transform="translate(48, 96) scale(2)" fill="rgba(85, 103, 41, 1)"></use>
            <use xlink:href="#SvgjsG1571" transform="translate(48, 144) scale(2)" fill="rgba(85, 103, 41, 1)"></use>
            <use xlink:href="#SvgjsG1568" transform="translate(48, 192) scale(2)" fill="rgba(85, 103, 41, 1)"></use>
            <use xlink:href="#SvgjsG1572" transform="translate(48, 240) scale(2)" fill="rgba(85, 103, 41, 1)"></use>
            <use xlink:href="#SvgjsG1569" transform="translate(48, 288) scale(2)" fill="rgba(85, 103, 41, 1)"></use>
            <use xlink:href="#SvgjsG1566" transform="translate(48, 336) scale(2)" fill="rgba(85, 103, 41, 1)"></use>
            <use xlink:href="#SvgjsG1568" transform="translate(48, 384) scale(2)" fill="rgba(85, 103, 41, 1)"></use>
            <use xlink:href="#SvgjsG1575" transform="translate(48, 432) scale(2)" fill="rgba(85, 103, 41, 1)"></use>
            <use xlink:href="#SvgjsG1575" transform="translate(96, 0) scale(2)" fill="rgba(85, 103, 41, 1)"></use>
            <use xlink:href="#SvgjsG1576" transform="translate(96, 48) scale(2)" fill="rgba(85, 103, 41, 1)"></use>
            <use xlink:href="#SvgjsG1577" transform="translate(96, 96) scale(2)" fill="rgba(85, 103, 41, 1)"></use>
            <use xlink:href="#SvgjsG1567" transform="translate(96, 144) scale(2)" fill="rgba(85, 103, 41, 1)"></use>
            <use xlink:href="#SvgjsG1567" transform="translate(96, 192) scale(2)" fill="rgba(85, 103, 41, 1)"></use>
            <use xlink:href="#SvgjsG1576" transform="translate(96, 240) scale(2)" fill="rgba(85, 103, 41, 1)"></use>
            <use xlink:href="#SvgjsG1577" transform="translate(96, 288) scale(2)" fill="rgba(85, 103, 41, 1)"></use>
            <use xlink:href="#SvgjsG1565" transform="translate(96, 336) scale(2)" fill="rgba(85, 103, 41, 1)"></use>
            <use xlink:href="#SvgjsG1566" transform="translate(96, 384) scale(2)" fill="rgba(85, 103, 41, 1)"></use>
            <use xlink:href="#SvgjsG1566" transform="translate(96, 432) scale(2)" fill="rgba(85, 103, 41, 1)"></use>
            <use xlink:href="#SvgjsG1575" transform="translate(144, 0) scale(2)" fill="rgba(85, 103, 41, 1)"></use>
            <use xlink:href="#SvgjsG1575" transform="translate(144, 48) scale(2)" fill="rgba(85, 103, 41, 1)"></use>
            <use xlink:href="#SvgjsG1565" transform="translate(144, 96) scale(2)" fill="rgba(85, 103, 41, 1)"></use>
            <use xlink:href="#SvgjsG1575" transform="translate(144, 144) scale(2)" fill="rgba(85, 103, 41, 1)"></use>
            <use xlink:href="#SvgjsG1574" transform="translate(144, 192) scale(2)" fill="rgba(85, 103, 41, 1)"></use>
            <use xlink:href="#SvgjsG1575" transform="translate(144, 240) scale(2)" fill="rgba(85, 103, 41, 1)"></use>
            <use xlink:href="#SvgjsG1575" transform="translate(144, 288) scale(2)" fill="rgba(85, 103, 41, 1)"></use>
            <use xlink:href="#SvgjsG1575" transform="translate(144, 336) scale(2)" fill="rgba(85, 103, 41, 1)"></use>
            <use xlink:href="#SvgjsG1577" transform="translate(144, 384) scale(2)" fill="rgba(85, 103, 41, 1)"></use>
            <use xlink:href="#SvgjsG1576" transform="translate(144, 432) scale(2)" fill="rgba(85, 103, 41, 1)"></use>
            <use xlink:href="#SvgjsG1572" transform="translate(192, 0) scale(2)" fill="rgba(85, 103, 41, 1)"></use>
            <use xlink:href="#SvgjsG1573" transform="translate(192, 48) scale(2)" fill="rgba(85, 103, 41, 1)"></use>
            <use xlink:href="#SvgjsG1578" transform="translate(192, 96) scale(2)" fill="rgba(85, 103, 41, 1)"></use>
            <use xlink:href="#SvgjsG1569" transform="translate(192, 144) scale(2)" fill="rgba(85, 103, 41, 1)"></use>
            <use xlink:href="#SvgjsG1565" transform="translate(192, 192) scale(2)" fill="rgba(85, 103, 41, 1)"></use>
            <use xlink:href="#SvgjsG1578" transform="translate(192, 240) scale(2)" fill="rgba(85, 103, 41, 1)"></use>
            <use xlink:href="#SvgjsG1574" transform="translate(192, 288) scale(2)" fill="rgba(85, 103, 41, 1)"></use>
            <use xlink:href="#SvgjsG1574" transform="translate(192, 336) scale(2)" fill="rgba(85, 103, 41, 1)"></use>
            <use xlink:href="#SvgjsG1571" transform="translate(192, 384) scale(2)" fill="rgba(85, 103, 41, 1)"></use>
            <use xlink:href="#SvgjsG1575" transform="translate(192, 432) scale(2)" fill="rgba(85, 103, 41, 1)"></use>
            <use xlink:href="#SvgjsG1566" transform="translate(240, 0) scale(2)" fill="rgba(85, 103, 41, 1)"></use>
            <use xlink:href="#SvgjsG1578" transform="translate(240, 48) scale(2)" fill="rgba(85, 103, 41, 1)"></use>
            <use xlink:href="#SvgjsG1568" transform="translate(240, 96) scale(2)" fill="rgba(85, 103, 41, 1)"></use>
            <use xlink:href="#SvgjsG1565" transform="translate(240, 144) scale(2)" fill="rgba(85, 103, 41, 1)"></use>
            <use xlink:href="#SvgjsG1571" transform="translate(240, 192) scale(2)" fill="rgba(85, 103, 41, 1)"></use>
            <use xlink:href="#SvgjsG1574" transform="translate(240, 240) scale(2)" fill="rgba(85, 103, 41, 1)"></use>
            <use xlink:href="#SvgjsG1569" transform="translate(240, 288) scale(2)" fill="rgba(85, 103, 41, 1)"></use>
            <use xlink:href="#SvgjsG1579" transform="translate(240, 336) scale(2)" fill="rgba(85, 103, 41, 1)"></use>
            <use xlink:href="#SvgjsG1574" transform="translate(240, 384) scale(2)" fill="rgba(85, 103, 41, 1)"></use>
            <use xlink:href="#SvgjsG1568" transform="translate(240, 432) scale(2)" fill="rgba(85, 103, 41, 1)"></use>
            <use xlink:href="#SvgjsG1578" transform="translate(288, 0) scale(2)" fill="rgba(85, 103, 41, 1)"></use>
            <use xlink:href="#SvgjsG1572" transform="translate(288, 48) scale(2)" fill="rgba(85, 103, 41, 1)"></use>
            <use xlink:href="#SvgjsG1572" transform="translate(288, 96) scale(2)" fill="rgba(85, 103, 41, 1)"></use>
            <use xlink:href="#SvgjsG1576" transform="translate(288, 144) scale(2)" fill="rgba(85, 103, 41, 1)"></use>
            <use xlink:href="#SvgjsG1572" transform="translate(288, 192) scale(2)" fill="rgba(85, 103, 41, 1)"></use>
            <use xlink:href="#SvgjsG1568" transform="translate(288, 240) scale(2)" fill="rgba(85, 103, 41, 1)"></use>
            <use xlink:href="#SvgjsG1578" transform="translate(288, 288) scale(2)" fill="rgba(85, 103, 41, 1)"></use>
            <use xlink:href="#SvgjsG1567" transform="translate(288, 336) scale(2)" fill="rgba(85, 103, 41, 1)"></use>
            <use xlink:href="#SvgjsG1571" transform="translate(288, 384) scale(2)" fill="rgba(85, 103, 41, 1)"></use>
            <use xlink:href="#SvgjsG1567" transform="translate(288, 432) scale(2)" fill="rgba(85, 103, 41, 1)"></use>
            <use xlink:href="#SvgjsG1574" transform="translate(336, 0) scale(2)" fill="rgba(85, 103, 41, 1)"></use>
            <use xlink:href="#SvgjsG1574" transform="translate(336, 48) scale(2)" fill="rgba(85, 103, 41, 1)"></use>
            <use xlink:href="#SvgjsG1575" transform="translate(336, 96) scale(2)" fill="rgba(85, 103, 41, 1)"></use>
            <use xlink:href="#SvgjsG1568" transform="translate(336, 144) scale(2)" fill="rgba(85, 103, 41, 1)"></use>
            <use xlink:href="#SvgjsG1566" transform="translate(336, 192) scale(2)" fill="rgba(85, 103, 41, 1)"></use>
            <use xlink:href="#SvgjsG1573" transform="translate(336, 240) scale(2)" fill="rgba(85, 103, 41, 1)"></use>
            <use xlink:href="#SvgjsG1574" transform="translate(336, 288) scale(2)" fill="rgba(85, 103, 41, 1)"></use>
            <use xlink:href="#SvgjsG1578" transform="translate(336, 336) scale(2)" fill="rgba(85, 103, 41, 1)"></use>
            <use xlink:href="#SvgjsG1578" transform="translate(336, 384) scale(2)" fill="rgba(85, 103, 41, 1)"></use>
            <use xlink:href="#SvgjsG1576" transform="translate(336, 432) scale(2)" fill="rgba(85, 103, 41, 1)"></use>
            <use xlink:href="#SvgjsG1566" transform="translate(384, 0) scale(2)" fill="rgba(85, 103, 41, 1)"></use>
            <use xlink:href="#SvgjsG1574" transform="translate(384, 48) scale(2)" fill="rgba(85, 103, 41, 1)"></use>
            <use xlink:href="#SvgjsG1577" transform="translate(384, 96) scale(2)" fill="rgba(85, 103, 41, 1)"></use>
            <use xlink:href="#SvgjsG1567" transform="translate(384, 144) scale(2)" fill="rgba(85, 103, 41, 1)"></use>
            <use xlink:href="#SvgjsG1565" transform="translate(384, 192) scale(2)" fill="rgba(85, 103, 41, 1)"></use>
            <use xlink:href="#SvgjsG1566" transform="translate(384, 240) scale(2)" fill="rgba(85, 103, 41, 1)"></use>
            <use xlink:href="#SvgjsG1574" transform="translate(384, 288) scale(2)" fill="rgba(85, 103, 41, 1)"></use>
            <use xlink:href="#SvgjsG1573" transform="translate(384, 336) scale(2)" fill="rgba(85, 103, 41, 1)"></use>
            <use xlink:href="#SvgjsG1572" transform="translate(384, 384) scale(2)" fill="rgba(85, 103, 41, 1)"></use>
            <use xlink:href="#SvgjsG1575" transform="translate(384, 432) scale(2)" fill="rgba(85, 103, 41, 1)"></use>
            <use xlink:href="#SvgjsG1566" transform="translate(432, 0) scale(2)" fill="rgba(85, 103, 41, 1)"></use>
            <use xlink:href="#SvgjsG1579" transform="translate(432, 48) scale(2)" fill="rgba(85, 103, 41, 1)"></use>
            <use xlink:href="#SvgjsG1570" transform="translate(432, 96) scale(2)" fill="rgba(85, 103, 41, 1)"></use>
            <use xlink:href="#SvgjsG1579" transform="translate(432, 144) scale(2)" fill="rgba(85, 103, 41, 1)"></use>
            <use xlink:href="#SvgjsG1577" transform="translate(432, 192) scale(2)" fill="rgba(85, 103, 41, 1)"></use>
            <use xlink:href="#SvgjsG1570" transform="translate(432, 240) scale(2)" fill="rgba(85, 103, 41, 1)"></use>
            <use xlink:href="#SvgjsG1567" transform="translate(432, 288) scale(2)" fill="rgba(85, 103, 41, 1)"></use>
            <use xlink:href="#SvgjsG1577" transform="translate(432, 336) scale(2)" fill="rgba(85, 103, 41, 1)"></use>
            <use xlink:href="#SvgjsG1576" transform="translate(432, 384) scale(2)" fill="rgba(85, 103, 41, 1)"></use>
            <use xlink:href="#SvgjsG1567" transform="translate(432, 432) scale(2)" fill="rgba(85, 103, 41, 1)"></use>
        </g>
    </defs>
</svg>